# xmcd
#
# Track frame offsets:
#	150
#	10906
#	26586
#	38126
#	51631
#	64406
#	81532
#	90049
#	99214
#	110615
#	126240
#	137795
#	149487
#	179444
#	195475
#	224517
#	247851
#	257940
#
# Disc length: 3561
#
# Revision: 1
# Processed by: cddbd v1.5.1PL0 Copyright (c) Steve Scherf et al.
# Submitted via: audiograbber 1.81.03
# Normalized: r0:DSETVAR1
#
DISCID=090de712
DTITLE=Various Artist - Beach Party CD2
DYEAR=1900
DGENRE=Blues
TTITLE0=Wayne Fontana and The Mindbenders - Game of Love
TTITLE1=Eddie Floyd - Knock on Wood
TTITLE2=The Brotherhood of Man - Dancing Queen
TTITLE3=Mud - Dynamite
TTITLE4=Georgie Flame and The Blue Flames - Rosetta
TTITLE5=Disco Tex and The Sex-O-Lettes - Get Dancing
TTITLE6=Jerry Lee Lewis - Great Balls of Fire
TTITLE7=Little Richard - Long Tall Sally
TTITLE8=The Isley Brothers - Twist and Shout
TTITLE9=Dave Dee, Dozy, Beaky, Mick and Tich - Zabadak
TTITLE10=Jay and The Americans - Cara Mia
TTITLE11=Fats Domino - Blueberry Hill
TTITLE12=James Brown - Sexmachine
TTITLE13=Anita Ward - Ring My Bell
TTITLE14=Ray Charles - Wat'd I Say
TTITLE15=Dillinger - Cocaine in My Brain
TTITLE16=Lesley Gore - Its My Party
TTITLE17=Dave "Baby" Cortez - Happy Organ
EXTD=
EXTT0=
EXTT1=
EXTT2=
EXTT3=
EXTT4=
EXTT5=
EXTT6=
EXTT7=
EXTT8=
EXTT9=
EXTT10=
EXTT11=
EXTT12=
EXTT13=
EXTT14=
EXTT15=
EXTT16=
EXTT17=
PLAYORDER=
